{"title":"The Sacrament 2013 WEB-DL XviD MP3","uid":10100632,"size":1090595071,"categoryP":"video","categoryS":"movies","magnet":"?xt=urn:btih:9f2814e80ce417f21b7392c118c8e422d23bc0bc&amp;dn=The+Sacrament+2013+WEB-DL+XviD+MP3&amp;tr=udp%3A%2F%2Ftracker.openbittorrent.com%3A80&amp;tr=udp%3A%2F%2Fopen.demonii.com%3A1337&amp;tr=udp%3A%2F%2Ftracker.coppersurfer.tk%3A6969&amp;tr=udp%3A%2F%2Fexodus.desync.com%3A6969","seeders":2,"leechers":0,"uploader":".BONE.","files":3,"time":1399392786,"description":" &lt;a href=&quot;http://www.imdb.com/title/tt2383068/&quot; rel=&quot;nofollow&quot; target=&quot;_NEW&quot;&gt;http://www.imdb.com/title/tt2383068/&lt;/a&gt;\n\n\nInfo:\nFormat : AVI\nFormat/Info : Audio Video Interleave\nFile size : 1.02 GiB\nDuration : 1h 39mn\nOverall bit rate : 1 467 Kbps\nMovie name : RARBG.COM - The.Sacrament.2013.WEB-DL.XviD.MP3-RARBG\nWriting library : VirtualDub build 35491/release\nComment : RARBG.COM - The.Sacrament.2013.WEB-DL.XviD.MP3-RARBG\n\nVideo\nID : 0\nFormat : MPEG-4 Visual\nFormat profile : Simple@L5\nFormat settings, BVOP : No\nFormat settings, QPel : No\nFormat settings, GMC : No warppoints\nFormat settings, Matrix : Default (H.263)\nCodec ID : XVID\nCodec ID/Hint : XviD\nDuration : 1h 39mn\nBit rate : 1 198 Kbps\nWidth : 720 pixels\nHeight : 404 pixels\nDisplay aspect ratio : 16:9\nFrame rate : 23.976 fps\nColor space : YUV\nChroma subsampling : 4:2:0\nBit depth : 8 bits\nScan type : Progressive\nCompression mode : Lossy\nBits/(Pixel*Frame) : 0.172\nStream size : 849 MiB (82%)\nWriting library : Lavc55.55.104\n\nAudio\nID : 1\nFormat : MPEG Audio\nFormat version : Version 1\nFormat profile : Layer 3\nMode : Joint stereo\nMode extension : MS Stereo\nCodec ID : 55\nCodec ID/Hint : MP3\nDuration : 1h 39mn\nBit rate mode : Constant\nBit rate : 256 Kbps\nChannel(s) : 2 channels\nSampling rate : 48.0 KHz\nCompression mode : Lossy\nStream size : 182 MiB (17%)\nAlignment : Aligned on interleaves\nInterleave, duration : 24 ms (0.58 video frame)\nInterleave, preload duration : 504 ms","torrent":{"xt":"urn:btih:9f2814e80ce417f21b7392c118c8e422d23bc0bc","amp;dn":"The+Sacrament+2013+WEB-DL+XviD+MP3","amp;tr":["udp%3A%2F%2Ftracker.openbittorrent.com%3A80","udp%3A%2F%2Fopen.demonii.com%3A1337","udp%3A%2F%2Ftracker.coppersurfer.tk%3A6969","udp%3A%2F%2Fexodus.desync.com%3A6969"],"infoHash":"9f2814e80ce417f21b7392c118c8e422d23bc0bc","infoHashBuffer":{"type":"Buffer","data":[159,40,20,232,12,228,23,242,27,115,146,193,24,200,228,34,210,59,192,188]},"announce":[],"urlList":[]}}